<svg width="14" height="16" viewBox="0 0 14 16" fill="none" xmlns="http://www.w3.org/2000/svg">
<path fill-rule="evenodd" clip-rule="evenodd" d="M6.66677 0C9.24413 0 11.3335 2.08935 11.3335 4.66678L11.3335 6.66682H12.0062C12.7345 6.66682 13.3335 7.26543 13.3335 8.00399V14.6629C13.3335 15.402 12.7392 16.0001 12.0062 16.0001H1.32728C0.598927 16.0001 0 15.4015 0 14.6629V8.00399C0 7.26475 0.59432 6.66682 1.32728 6.66682H2V4.66678C2 2.08928 4.08942 0 6.66677 0ZM3.33342 6.66682H9.99998V4.66678C9.99998 2.82581 8.50766 1.33335 6.6667 1.33335C4.82574 1.33335 3.33342 2.82581 3.33342 4.66678V6.66682Z" fill="#676767"/>
</svg>
